<svg xmlns="http://www.w3.org/2000/svg" viewBox="0 0 1819.16 384.62">
  <g>
    <g>
      <path fill="#EEF2F7" d="m33.58,347.36L0,380.95V3.67l33.58,33.58v310.11ZM3.67,0h65.06l-32.53,32.53L3.67,0Zm32.53,352.09l32.53,32.53H3.67l32.53-32.53Zm2.62-314.83L72.41,3.67v377.27l-33.58-33.58V37.25Z"/>
      <path fill="#EEF2F7" d="m171.58,347.36l-33.58,33.58V3.67l33.58,33.58v310.11ZM290.17,0l33.58,33.58h-148.5L141.67,0h148.5Zm-115.96,352.09l32.53,32.53h-65.06l32.53-32.53Zm2.62-4.72V43.03l33.58,33.58v304.34l-33.58-33.58ZM323.75,38.83l-33.58,33.58h-76.08l-33.58-33.58h143.25Zm-29.91,342.12V76.61l33.58-33.58v304.34l-33.58,33.58Zm36.21-28.86l32.53,32.53h-65.06l32.53-32.53Zm2.62-4.72V43.03l33.58,33.58v304.34l-33.58-33.58Z"/>
      <path fill="#EEF2F7" d="m465.41,347.36l-33.58,33.58V3.67l33.58,33.58v310.11ZM435.5,0h220.91l-33.58,33.58h-153.74L435.5,0Zm0,384.62l33.58-33.58h153.74l33.58,33.58h-220.91Zm35.16-43.03V43.03l33.58,33.58v231.4l-33.58,33.58ZM622.83,38.83l33.58,33.58h-147.97l-33.58-33.58h147.97Zm-147.97,306.96l33.58-33.58h147.97l-33.58,33.58h-147.97ZM628.08,36.21l32.53-32.53v65.06l-32.53-32.53Zm0,312.21l32.53-32.53v65.07l-32.53-32.53Z"/>
      <path fill="#EEF2F7" d="m760.3,347.36l-33.58,33.58V3.67l33.58,33.58v310.11ZM730.39,0h65.07l-32.53,32.53L730.39,0Zm32.53,352.09l32.53,32.53h-65.07l32.53-32.53Zm2.62-314.83l33.58-33.58v377.27l-33.58-33.58V37.25Z"/>
      <path fill="#EEF2F7" d="m897.78,191l-33.58,33.58V3.67l33.58,33.58v153.74Zm0,156.37l-33.58,33.58v-103.89l33.58,33.58v36.73ZM1089.3,0l-33.58,33.58h-153.74L868.39,0h220.91Zm-39.35,195.2l-33.58,33.58h-147.97l33.58-33.58h147.97Zm-149.02,110.19l-32.53-32.53h64.54l-32.01,32.53Zm154.79,45.65l33.58,33.58h-220.91l33.58-33.58h153.74Zm-152.17-165.29V43.03l33.58,33.58v75.56l-33.58,33.58Zm0,155.84v-30.96l33.58-33.58v30.96l-33.58,33.58Zm146.4-302.76l-33.58,33.58h-75.56l-33.58-33.58h142.72Zm-142.72,150.59l33.58-33.58h148.5l-33.58,33.58h-148.5Zm0,156.37l33.58-33.58h75.56l33.58,33.58h-142.72Zm146.92-302.76v30.96l-33.58,33.58v-30.96l33.58-33.58Zm-33.58,264.98v-75.56l33.58-33.58v142.72l-33.58-33.58Zm36.21-228.78l32.53,32.53h-65.06l32.53-32.53Zm2.62-41.98l33.58-33.58v103.89l-33.58-33.58v-36.73Zm0,156.37l33.58-33.58v220.91l-33.58-33.58v-153.74Z"/>
      <path fill="#EEF2F7" d="m1192.66,347.36l-33.58,33.58V3.67l33.58,33.58v310.11ZM1162.75,0h65.07l-32.53,32.53L1162.75,0Zm32.53,352.09l32.53,32.53h-65.07l32.53-32.53Zm2.62-314.83l33.58-33.58v377.27l-33.58-33.58V37.25Z"/>
      <path fill="#EEF2F7" d="m1330.66,347.36l-33.58,33.58V3.67l33.58,33.58v310.11ZM1300.75,0h220.91l-33.58,33.58h-153.74L1300.75,0Zm187.32,351.04l33.58,33.58h-220.91l33.58-33.58h153.74Zm-118.59-274.43v231.4l-33.58,33.58V43.03l33.58,33.58Zm-29.91-37.78h143.25l-33.58,33.58h-76.08l-33.58-33.58Zm109.67,273.38l33.58,33.58h-143.25l33.58-33.58h76.08Zm3.67-235.6l33.58-33.58v298.56l-33.58-33.58V76.61Zm38.83-39.35l33.58-33.58v377.27l-33.58-33.58V37.25Z"/>
      <path fill="#EEF2F7" d="m1624.49,347.36l-33.58,33.58V3.67l33.58,33.58v310.11ZM1743.08,0l33.58,33.58h-148.5L1594.58,0h148.5Zm-115.96,352.09l32.53,32.53h-65.07l32.53-32.53Zm2.62-4.72V43.03l33.58,33.58v304.34l-33.58-33.58Zm146.92-308.53l-33.58,33.58h-76.08l-33.58-33.58h143.25Zm-29.91,342.12V76.61l33.58-33.58v304.34l-33.58,33.58Zm36.21-28.86l32.53,32.53h-65.06l32.53-32.53Zm2.62-4.72V43.03l33.58,33.58v304.34l-33.58-33.58Z"/>
    </g>
  </g>
</svg>
